<svg version="1.1" id="Layer_1" xmlns="http://www.w3.org/2000/svg" xmlns:xlink="http://www.w3.org/1999/xlink" x="0px" y="0px"
	 width="100%" viewBox="0 0 120 120" enable-background="new 0 0 120 120" xml:space="preserve">
<path fill="#EAE2CA" opacity="1.000000" stroke="none" 
	d="
M89.000000,121.000000 
	C59.333332,121.000000 30.166666,121.000000 1.000000,121.000000 
	C1.000000,81.000000 1.000000,41.000000 1.000000,1.000000 
	C41.000000,1.000000 81.000000,1.000000 121.000000,1.000000 
	C121.000000,41.000000 121.000000,81.000000 121.000000,121.000000 
	C110.500000,121.000000 100.000000,121.000000 89.000000,121.000000 
M42.000000,71.500000 
	C42.000000,80.590714 42.000000,89.681427 42.000000,98.759972 
	C56.652546,98.759972 70.587135,98.759972 84.700226,98.759972 
	C84.700226,94.130257 84.700226,89.744530 84.700226,84.821831 
	C76.681488,84.821831 68.949394,84.821831 60.880875,84.821831 
	C60.880875,63.680714 60.880875,43.078236 60.880875,22.300827 
	C54.463440,22.300827 48.410980,22.300827 42.000000,22.300827 
	C42.000000,38.565990 42.000000,54.532997 42.000000,71.500000 
z"/>
<path fill="#802E37" opacity="1.000000" stroke="none" 
	d="
M42.000000,71.000000 
	C42.000000,54.532997 42.000000,38.565990 42.000000,22.300827 
	C48.410980,22.300827 54.463440,22.300827 60.880875,22.300827 
	C60.880875,43.078236 60.880875,63.680714 60.880875,84.821831 
	C68.949394,84.821831 76.681488,84.821831 84.700226,84.821831 
	C84.700226,89.744530 84.700226,94.130257 84.700226,98.759972 
	C70.587135,98.759972 56.652546,98.759972 42.000000,98.759972 
	C42.000000,89.681427 42.000000,80.590714 42.000000,71.000000 
z"/>
</svg>
